<svg width="24" height="24" viewBox="0 0 24 24" fill="none" xmlns="http://www.w3.org/2000/svg">
<path d="M3.17102 7.43994L12.001 12.5499L20.771 7.46991" stroke="#6F7384" stroke-width="1.5" stroke-linecap="round" stroke-linejoin="round"/>
<path d="M12.001 21.6099V12.5399" stroke="#6F7384" stroke-width="1.5" stroke-linecap="round" stroke-linejoin="round"/>
<path d="M9.93097 2.48L4.59097 5.45003C3.38097 6.12003 2.39099 7.80001 2.39099 9.18001V14.83C2.39099 16.21 3.38097 17.89 4.59097 18.56L9.93097 21.53C11.071 22.16 12.941 22.16 14.081 21.53L19.421 18.56C20.631 17.89 21.621 16.21 21.621 14.83V9.18001C21.621 7.80001 20.631 6.12003 19.421 5.45003L14.081 2.48C12.931 1.84 11.071 1.84 9.93097 2.48Z" stroke="#6F7384" stroke-width="1.5" stroke-linecap="round" stroke-linejoin="round"/>
<path d="M17.001 13.24V9.58002L7.51099 4.09998" stroke="#6F7384" stroke-width="1.5" stroke-linecap="round" stroke-linejoin="round"/>
</svg>
